<svg width="21" height="21" viewBox="0 0 21 21" fill="none" xmlns="http://www.w3.org/2000/svg">
<path d="M3.875 11H14.2525L11.0762 14.815C11.0027 14.9035 10.9473 15.0056 10.9132 15.1155C10.8791 15.2253 10.867 15.3409 10.8776 15.4554C10.8989 15.6868 11.0113 15.9002 11.19 16.0488C11.3687 16.1973 11.5991 16.2687 11.8304 16.2474C12.0618 16.2261 12.2752 16.1137 12.4237 15.935L16.7987 10.685C16.8282 10.6432 16.8545 10.5994 16.8775 10.5538C16.8775 10.51 16.9212 10.4838 16.9387 10.44C16.9784 10.3397 16.9992 10.2329 17 10.125C16.9992 10.0171 16.9784 9.91033 16.9387 9.81C16.9387 9.76625 16.895 9.74 16.8775 9.69625C16.8545 9.65063 16.8282 9.60676 16.7987 9.565L12.4237 4.315C12.3415 4.21623 12.2385 4.1368 12.122 4.08235C12.0056 4.02791 11.8785 3.99979 11.75 4C11.5456 3.9996 11.3474 4.07081 11.19 4.20125C11.1014 4.27471 11.0282 4.36492 10.9745 4.46672C10.9208 4.56853 10.8877 4.67992 10.8772 4.79453C10.8666 4.90913 10.8787 5.02469 10.9129 5.1346C10.9471 5.2445 11.0026 5.34658 11.0762 5.435L14.2525 9.25H3.875C3.64294 9.25 3.42038 9.34219 3.25628 9.50628C3.09219 9.67038 3 9.89294 3 10.125C3 10.3571 3.09219 10.5796 3.25628 10.7437C3.42038 10.9078 3.64294 11 3.875 11Z" fill="white"/>
</svg>
