<svg width="14" height="14" viewBox="0 0 14 14" fill="none" xmlns="http://www.w3.org/2000/svg">
<g clip-path="url(#clip0_0_514)">
<path d="M8.55555 6.99957C8.55555 8.28019 8.07838 9.45074 7.29283 10.3429L7.8419 9.59041L8.24402 8.75L8.4759 7.89765L8.55555 6.99957ZM8.55555 6.99957C8.55555 5.71157 8.07761 4.5383 7.28894 3.64774L7.84717 4.41186L8.24402 5.24361L8.47911 6.116L8.55555 6.99957ZM10.0656 13.2245C11.5453 11.5729 12.4444 9.3893 12.4444 6.99957C12.4444 4.60752 11.5504 2.42857 10.0773 0.779297" stroke="#C8C8C8" stroke-width="1.85185" stroke-miterlimit="10" stroke-linecap="round" stroke-linejoin="round"/>
<path d="M3.49999 8.94431C2.42782 8.94431 1.55554 8.07203 1.55554 6.99986C1.55554 5.9277 2.42782 5.05542 3.49999 5.05542C4.57215 5.05542 5.44443 5.9277 5.44443 6.99986C5.44443 8.07203 4.57215 8.94431 3.49999 8.94431Z" fill="#C8C8C8"/>
</g>
<defs>
<clipPath id="clip0_0_514">
<rect width="14" height="14" fill="white"/>
</clipPath>
</defs>
</svg>
