<svg width="14" height="12" viewBox="0 0 14 12" fill="none" xmlns="http://www.w3.org/2000/svg">
<path d="M8.17707 1.06836V2.60836" stroke="#C8C8C8" stroke-width="1.25" stroke-linecap="round" stroke-linejoin="round"/>
<path d="M8.17707 9.66577V10.9538" stroke="#C8C8C8" stroke-width="1.25" stroke-linecap="round" stroke-linejoin="round"/>
<path d="M8.17707 7.47929V4.41138" stroke="#C8C8C8" stroke-width="1.25" stroke-linecap="round" stroke-linejoin="round"/>
<path fill-rule="evenodd" clip-rule="evenodd" d="M11.265 11.0905C12.4245 11.0905 13.3636 10.163 13.3636 9.01797V7.36819C12.5964 7.36819 11.9785 6.75796 11.9785 6.00026C11.9785 5.24255 12.5964 4.63167 13.3636 4.63167L13.363 2.98124C13.363 1.83616 12.4231 0.908691 11.2643 0.908691H2.73566C1.57683 0.908691 0.637016 1.83616 0.637016 2.98124L0.636353 4.68542C1.4036 4.68542 2.02151 5.24255 2.02151 6.00026C2.02151 6.75796 1.4036 7.36819 0.636353 7.36819V9.01797C0.636353 10.163 1.5755 11.0905 2.735 11.0905H11.265Z" stroke="#C8C8C8" stroke-width="1.25" stroke-linecap="round" stroke-linejoin="round"/>
</svg>
